<mxfile host="app.diagrams.net" modified="2023-06-18T03:10:12.873Z" agent="Mozilla/5.0 (Macintosh; Intel Mac OS X 10_15_7) AppleWebKit/537.36 (KHTML, like Gecko) Chrome/114.0.0.0 Safari/537.36" version="21.4.0" etag="hakJZzrE1dKMoj1vz-e_" type="github">
  <diagram name="Page-1" id="k01CZATgZug0z87xbi3D">
    <mxGraphModel>
      <root>
        <mxCell id="0" />
        <mxCell id="1" parent="0" />
      </root>
    </mxGraphModel>
  </diagram>
</mxfile>
